<?xml version="1.0" encoding="utf-8"?>
<svg viewBox="0 0 500 500" xmlns="http://www.w3.org/2000/svg">
  <path fill="rgb(255,0,0)" stroke="rgb(255,0,0)" stroke-width="0" d="M 230.246 99.977 C 235.828 99.456 238.204 99.344 241.956 100.562 C 245.932 101.853 251.228 106.015 253.372 107.881 C 254.597 108.946 254.461 109.501 255.422 110.515 C 256.747 111.915 259.028 113.304 260.984 115.492 C 263.456 118.257 266.212 123.592 268.888 126.323 C 271.104 128.585 273.545 127.98 275.621 131.3 C 279.261 137.121 283.161 153.649 284.988 164.087 C 286.667 173.674 285.261 185.281 286.745 191.604 C 287.722 195.766 290.084 196.751 290.843 200.386 C 291.793 204.937 292.09 210.758 290.843 217.365 C 289.228 225.923 283.662 239.402 279.719 247.81 C 276.464 254.754 274.938 259.977 269.473 265.082 C 262.785 271.329 250.555 276.804 240.199 280.89 C 229.691 285.036 219.096 287.223 206.827 289.672 C 193.048 292.422 172.899 297.434 161.159 296.112 C 152.382 295.124 147.178 291.386 140.667 287.33 C 133.77 283.034 126.367 276.217 121.054 270.644 C 116.411 265.774 114.204 263.026 109.93 256.007 C 103.432 245.338 91.595 223.225 86.511 209.169 C 82.315 197.57 80.535 186.646 79.485 177.553 C 78.63 170.157 78.427 164.544 79.485 158.232 C 80.553 151.856 83.268 144.243 85.925 139.496 C 88.041 135.717 88.955 133.886 93.244 131.007 C 100.315 126.26 115.91 120.418 129.543 116.37 C 144.953 111.795 173.257 105.318 181.651 105.831 C 185.283 106.054 184.049 108.531 187.506 108.759 C 194.888 109.245 220.803 100.857 230.246 99.977 Z M 227.026 131.593 C 218.423 132.89 183.673 141.149 173.162 145.059 C 167.455 147.181 165.712 150.059 162.623 150.913 C 160.219 151.578 158.337 151.433 156.183 150.913 C 153.85 150.351 150.758 148.652 149.157 147.4 C 147.966 146.469 148.681 144.742 146.815 144.473 C 142.284 143.82 119.552 150.657 114.028 155.012 C 110.702 157.634 110.348 159.385 109.93 163.794 C 109.231 171.166 111.318 185.802 115.785 198.337 C 121.225 213.607 136.806 240.496 143.302 248.689 C 146.48 252.696 149.37 252.878 150.913 254.543 C 151.934 255.644 151.417 256.448 152.67 257.471 C 154.882 259.277 159.416 262.588 165.55 263.326 C 175.02 264.464 195.31 260.523 207.119 258.056 C 216.922 256.009 225.276 253.266 232.295 250.445 C 238.119 248.104 242.72 247.708 246.932 242.834 C 252.651 236.215 260.162 217.208 260.398 210.047 C 260.539 205.784 257.279 205.498 256.3 201.265 C 254.775 194.673 255.898 180.617 254.543 171.991 C 253.367 164.502 252.261 158.197 249.274 152.084 C 246.246 145.887 239.277 138.479 236.393 135.105 C 234.783 133.221 234.369 132.197 232.881 131.593 C 231.291 130.947 230.524 131.065 227.026 131.593 Z M 147.693 156.768 C 150.669 156.15 155.025 155.904 158.232 156.768 C 161.352 157.609 164.784 159.914 166.721 161.745 C 168.259 163.198 169.042 164.473 169.649 166.429 C 170.38 168.784 170.91 172.391 170.234 175.211 C 169.528 178.159 167.389 181.679 165.258 183.7 C 163.31 185.547 160.895 186.515 158.232 187.213 C 155.303 187.981 151.413 188.591 148.279 187.799 C 145.061 186.985 141.326 184.51 139.204 182.237 C 137.325 180.223 136.253 177.544 135.691 175.211 C 135.172 173.056 135.009 171.065 135.691 168.77 C 136.525 165.966 139.035 161.706 141.253 159.696 C 143.137 157.988 145.156 157.295 147.693 156.768 Z M 215.023 146.815 C 218.225 146.245 223.279 146.386 226.733 147.4 C 229.953 148.347 233.285 150.546 235.222 152.377 C 236.76 153.83 237.543 155.106 238.15 157.061 C 238.881 159.417 239.411 163.024 238.735 165.843 C 238.029 168.791 236.308 171.949 233.759 174.333 C 230.833 177.067 225.242 179.669 221.464 180.773 C 218.314 181.693 215.501 182.034 212.682 181.358 C 209.734 180.652 206.213 178.513 204.192 176.382 C 202.345 174.434 201.241 171.689 200.679 169.356 C 200.16 167.201 199.909 165.458 200.679 162.916 C 201.77 159.317 205.78 152.368 208.583 149.742 C 210.639 147.817 212.408 147.28 215.023 146.815 Z M 147.108 198.923 C 150.841 198.423 157.802 199.327 161.745 200.679 C 165.029 201.806 167.482 203.397 169.649 205.656 C 171.919 208.022 171.508 213.091 174.918 214.731 C 179.645 217.003 189.813 215.506 198.63 213.56 C 209.375 211.187 227.786 201.078 234.93 199.508 C 238.532 198.717 239.552 198.832 241.956 199.508 C 244.705 200.282 248.507 202.654 250.445 204.485 C 251.983 205.938 252.766 207.214 253.372 209.169 C 254.103 211.524 254.729 215.037 253.958 217.951 C 253.101 221.188 252.004 224.433 247.81 227.611 C 240.702 233 221.526 240.512 207.998 243.419 C 194.778 246.26 177.615 247.536 167.6 245.176 C 160.106 243.41 154.444 238.098 150.913 234.93 C 148.501 232.765 148.462 230.5 146.522 228.782 C 144.438 226.936 140.535 226.376 138.618 224.391 C 136.806 222.515 135.668 219.698 135.105 217.365 C 134.586 215.211 134.423 213.219 135.105 210.925 C 135.94 208.12 138.449 203.861 140.667 201.85 C 142.551 200.143 144.324 199.295 147.108 198.923 Z" style="fill: rgb(166, 209, 48); stroke: rgb(129, 151, 57); stroke-width: 2px;"/>
</svg>